<?xml version="1.0" encoding="UTF-8" standalone="no"?>
<!-- Created with Inkscape (http://www.inkscape.org/) -->

<svg
   width="360mm"
   height="360mm"
   viewBox="0 0 360 360"
   version="1.1"
   id="svg5"
   inkscape:version="1.1.2 (b8e25be833, 2022-02-05)"
   sodipodi:docname="logo-animated.svg"
   inkscape:export-filename="C:\Users\nisha\OneDrive\Desktop\logo.png"
   inkscape:export-xdpi="96"
   inkscape:export-ydpi="96"
   xmlns:inkscape="http://www.inkscape.org/namespaces/inkscape"
   xmlns:sodipodi="http://sodipodi.sourceforge.net/DTD/sodipodi-0.dtd"
   xmlns="http://www.w3.org/2000/svg"
   xmlns:svg="http://www.w3.org/2000/svg">
  <sodipodi:namedview
     id="namedview7"
     pagecolor="#ffffff"
     bordercolor="#666666"
     borderopacity="1.0"
     inkscape:pageshadow="2"
     inkscape:pageopacity="0.0"
     inkscape:pagecheckerboard="0"
     inkscape:document-units="mm"
     showgrid="false"
     inkscape:zoom="0.38885733"
     inkscape:cx="1001.6527"
     inkscape:cy="758.63299"
     inkscape:window-width="2560"
     inkscape:window-height="1369"
     inkscape:window-x="-8"
     inkscape:window-y="-8"
     inkscape:window-maximized="1"
     inkscape:current-layer="layer1" />
  <defs
     id="defs2" />
  <g
     inkscape:label="Layer 1"
     inkscape:groupmode="layer"
     id="layer1"
     transform="translate(-16.687396,-117.97866)">
    <path
       id="path4802"
       style="color:#000000;fill:#ccccff;stroke-width:10.0001;stroke-linecap:round;stroke-linejoin:round;-inkscape-stroke:none;paint-order:markers stroke fill"
       d="m 196.6874,117.97866 c -99.352293,0 -180.000004,80.64761 -180.000004,180 0,99.35229 80.647711,180 180.000004,180 99.3523,0 180,-80.64771 180,-180 0,-99.35239 -80.6477,-180 -180,-180 z m 0.0103,5.00742 A 175.00063,175.00067 0 0 1 371.6954,297.98896 175.00063,175.00067 0 0 1 196.6977,472.98674 175.00063,175.00067 0 0 1 21.694861,297.98896 175.00063,175.00067 0 0 1 196.69773,122.98608 Z m 89.15768,60.67354 c -1.76618,0.01 -3.59581,0.134 -5.47773,0.357 -10.03682,1.1896 -21.84263,5.25242 -34.80937,11.73574 -4.96742,2.48361 -10.12007,5.36902 -15.38929,8.54734 1.11813,1.2231 2.06432,2.61961 2.73369,4.19611 5.11169,-3.08131 10.10293,-5.86802 14.8932,-8.26313 12.62555,-6.31272 23.99307,-10.15954 33.15055,-11.24484 4.57868,-0.54301 8.54628,-0.40401 11.89079,0.388 3.34463,0.792 6.06676,2.24321 8.14941,4.32531 4.16498,4.16502 5.78778,10.87755 4.70256,20.03508 -1.0853,9.15734 -4.9268,20.51978 -11.23965,33.14533 -2.39613,4.79212 -5.18969,9.78754 -8.27343,14.90356 1.51486,0.634 2.92962,1.54891 4.20129,2.69751 3.17293,-5.26612 6.05028,-10.41594 8.53182,-15.37896 6.48345,-12.96675 10.56694,-24.7518 11.75643,-34.78864 1.18952,-10.03673 -0.55118,-18.55567 -6.14952,-24.15369 -2.79907,-2.79901 -6.32425,-4.63222 -10.40766,-5.61722 -2.55205,-0.616 -5.31947,-0.903 -8.26309,-0.884 z m -67.61886,20.71198 a 10.000036,10.000039 0 0 0 -1.71566,0.305 10.000036,10.000039 0 0 0 -7.07453,12.24214 10.000036,10.000039 0 0 0 12.25252,7.07973 10.000036,10.000039 0 0 0 7.06936,-12.25255 10.000036,10.000039 0 0 0 -7.07452,-7.06932 10.000036,10.000039 0 0 0 -3.45717,-0.305 z m -12.6091,16.50556 c -4.62587,3.43791 -9.29683,7.07843 -13.99402,10.92444 1.28573,1.09301 2.3931,2.37021 3.24529,3.80852 4.607,-3.77182 9.18093,-7.32213 13.70981,-10.69184 -1.18457,-1.16731 -2.21085,-2.50411 -2.96108,-4.04112 z m 21.86438,5.80842 c -1.35386,0.92901 -2.83992,1.69301 -4.5062,2.13941 -0.009,0.002 -0.0159,0.003 -0.0259,0.005 2.2267,5.16492 4.40124,10.50164 6.49575,16.05076 1.07206,-0.608 2.20182,-1.1303 3.44167,-1.4625 0.4185,-0.111 0.84132,-0.173 1.26091,-0.248 -2.14854,-5.68963 -4.37496,-11.18615 -6.66629,-16.48487 z m -91.66399,0.07 a 10.000036,10.000039 0 0 0 -10.03043,7.41043 10.000036,10.000039 0 0 0 7.06936,12.24225 10.000036,10.000039 0 0 0 12.25253,-7.06943 10.000036,10.000039 0 0 0 -7.07453,-12.25245 10.000036,10.000039 0 0 0 -2.21693,-0.331 z m 46.57614,6.47513 a 10.000036,10.000039 0 0 0 -10.03043,7.40523 10.000036,10.000039 0 0 0 7.06936,12.24734 10.000036,10.000039 0 0 0 12.24736,-7.06932 10.000036,10.000039 0 0 0 -7.06936,-12.24735 10.000036,10.000039 0 0 0 -2.21693,-0.336 z m -66.1254,0.315 c -4.5174,-0.01 -8.87934,0.09 -13.03801,0.346 -14.471245,0.868 -26.700717,3.23091 -35.987602,7.21923 -9.286892,3.98831 -15.815549,9.74704 -17.864606,17.39437 -2.049008,7.64693 0.726212,15.90136 6.774805,23.99869 6.04852,8.09743 15.45065,16.27426 27.548804,24.26219 4.644947,3.06682 9.731426,6.09743 15.130914,9.07954 0.500403,-1.58531 1.264385,-3.08231 2.299615,-4.45452 -5.250894,-2.89941 -10.187949,-5.83722 -14.676164,-8.80053 -11.779825,-7.77763 -20.789989,-15.69606 -26.308568,-23.08399 -5.518548,-7.38803 -7.462137,-14.01486 -5.937642,-19.70428 1.524524,-5.68952 6.518217,-10.44304 14.991385,-14.08185 8.473201,-3.63882 20.238349,-5.99113 34.328779,-6.83683 5.35282,-0.321 11.07514,-0.401 17.05329,-0.289 -0.2117,-1.63301 -0.10669,-3.31581 0.2532,-4.99712 -1.53848,-0.03 -3.06241,-0.05 -4.56821,-0.05 z m 34.06523,2.11361 c 0.12599,1.6337 0.0423,3.29861 -0.40308,4.96092 -0.003,0.01 -0.007,0.02 -0.0103,0.03 5.58692,0.652 11.29796,1.4388 17.15147,2.39781 0.01,-1.22881 0.12345,-2.46881 0.45475,-3.70522 0.11412,-0.426 0.30584,-0.807 0.45476,-1.2144 -6.01493,-0.98501 -11.90056,-1.80541 -17.64757,-2.47011 z m 46.64331,8.27853 c -0.047,1.0543 -0.19748,2.11601 -0.48059,3.17301 -0.1591,0.594 -0.41032,1.13291 -0.63562,1.68981 4.33717,1.0183 8.71044,2.11151 13.11552,3.29181 4.39334,1.17711 8.71748,2.41851 12.97084,3.70002 0.2454,-1.66791 0.79923,-3.25872 1.5658,-4.73872 -4.35016,-1.30851 -8.7483,-2.58441 -13.23955,-3.78792 -4.46787,-1.1973 -8.89589,-2.29071 -13.2964,-3.32801 z m 38.92283,4.01012 a 10.000036,10.000039 0 0 0 -1.71566,0.3 10.000036,10.000039 0 0 0 -7.07453,12.24734 10.000036,10.000039 0 0 0 12.25253,7.07453 10.000036,10.000039 0 0 0 7.06936,-12.25255 10.000036,10.000039 0 0 0 -7.07453,-7.06422 10.000036,10.000039 0 0 0 -3.45717,-0.305 z m -96.55776,3.18331 c -1.603,0.441 -3.27067,0.668 -4.97646,0.548 0.6624,5.71942 1.48018,11.58024 2.45981,17.56487 1.58909,-0.567 3.25321,-0.87001 4.92478,-0.88901 -0.9628,-5.87762 -1.75449,-11.61504 -2.40813,-17.22386 z m 30.1223,0.165 c -3.30807,3.11211 -6.61437,6.28362 -9.90124,9.57054 -3.27317,3.27301 -6.43772,6.56132 -9.5395,9.85473 0.8865,0.56601 1.7406,1.20851 2.51148,1.97921 0.4383,0.438 0.78022,0.93301 1.15239,1.41071 3.05076,-3.24492 6.18602,-6.48063 9.41031,-9.70484 3.21361,-3.21371 6.44514,-6.34353 9.67903,-9.38444 -1.3221,-1.0448 -2.41313,-2.32341 -3.31247,-3.72591 z m 82.01596,9.20873 c -0.30289,1.65981 -0.85045,3.26122 -1.66915,4.71812 5.56845,2.10391 10.92624,4.28992 16.1076,6.52673 0.4198,-1.60931 1.06844,-3.16581 2.02573,-4.58372 -5.29227,-2.28971 -10.78243,-4.51352 -16.46418,-6.66113 z m 29.37816,5.07462 a 10.000036,10.000039 0 0 0 -7.59129,2.91462 10.000036,10.000039 0 0 0 0,14.14385 10.000036,10.000039 0 0 0 14.13873,0 10.000036,10.000039 0 0 0 0,-14.14385 10.000036,10.000039 0 0 0 -4.48037,-2.58901 10.000036,10.000039 0 0 0 -2.06707,-0.32601 z m -37.233,5.63793 c -0.933,0.483 -1.9191,0.886 -2.97141,1.1679 -0.5998,0.161 -1.20253,0.206 -1.80351,0.289 1.28677,4.26812 2.52919,8.60394 3.71038,13.01215 1.17747,4.39442 2.2736,8.75384 3.2918,13.07935 1.56692,-0.622 3.21845,-0.941 4.88344,-1.018 -1.04151,-4.41962 -2.14074,-8.86444 -3.34348,-13.35325 -1.19735,-4.46842 -2.46547,-8.84834 -3.76722,-13.17755 z m -101.17766,2.1033 a 10.000036,10.000039 0 0 0 -7.59646,2.91452 10.000036,10.000039 0 0 0 0.005,14.14395 10.000036,10.000039 0 0 0 14.13872,0 10.000036,10.000039 0 0 0 0.005,-14.13875 10.000036,10.000039 0 0 0 -4.48554,-2.59421 10.000036,10.000039 0 0 0 -2.06706,-0.32501 z m 127.26918,12.83645 c -3.35186,4.50112 -6.87592,9.03854 -10.62471,13.61676 1.05872,0.622 2.05595,1.3794 2.96107,2.28411 0.3082,0.308 0.53076,0.663 0.80616,0.992 3.85965,-4.71532 7.51737,-9.40224 10.96577,-14.04565 -1.47621,-0.70801 -2.87687,-1.61041 -4.09278,-2.82672 -0.006,-0.006 -0.0103,-0.01 -0.0156,-0.02 z m -139.21681,6.75933 c -3.85463,4.70752 -7.50046,9.38924 -10.94511,14.02505 1.47677,0.70801 2.87054,1.63581 4.08762,2.85252 0.007,0.007 0.0127,0.01 0.0206,0.02 3.3592,-4.51102 6.89244,-9.06444 10.65055,-13.65296 -1.06382,-0.625 -2.08333,-1.3395 -2.99208,-2.24791 -0.31002,-0.31 -0.54503,-0.667 -0.82166,-0.997 z m 17.01711,4.28912 c -1.56622,0.621 -3.22459,0.931 -4.88861,1.0077 1.04014,4.42192 2.13536,8.86894 3.33831,13.35845 1.19632,4.46462 2.46029,8.84624 3.76206,13.17235 0.9329,-0.483 1.91903,-0.886 2.9714,-1.1679 0.59421,-0.159 1.19222,-0.274 1.78802,-0.357 -1.27896,-4.24532 -2.52011,-8.55524 -3.69488,-12.93975 -1.17664,-4.39102 -2.26091,-8.75194 -3.2763,-13.07425 z m 104.45395,5.47262 a 10.000036,10.000039 0 0 0 -7.59646,2.91451 10.000036,10.000039 0 0 0 0,14.14385 10.000036,10.000039 0 0 0 14.14389,0.005 10.000036,10.000039 0 0 0 -0.005,-14.14905 10.000036,10.000039 0 0 0 -4.48037,-2.58381 10.000036,10.000039 0 0 0 -2.06189,-0.331 z m -138.41066,7.73593 a 10.000036,10.000039 0 0 0 -7.59129,2.91461 10.000036,10.000039 0 0 0 0,14.14385 10.000036,10.000039 0 0 0 14.13872,-0.005 10.000036,10.000039 0 0 0 0,-14.13875 10.000036,10.000039 0 0 0 -4.48553,-2.58381 10.000036,10.000039 0 0 0 -2.0619,-0.331 z m 126.12196,11.44634 c -3.0517,3.24592 -6.18492,6.48983 -9.41031,9.71524 -3.21281,3.21281 -6.43571,6.33443 -9.6687,9.37414 1.31998,1.0463 2.40483,2.32821 3.30214,3.73111 3.30911,-3.11431 6.61356,-6.28802 9.90124,-9.57574 3.27058,-3.27061 6.43015,-6.55312 9.52917,-9.84433 -0.8847,-0.56601 -1.73095,-1.21981 -2.50115,-1.98961 -0.4383,-0.438 -0.78021,-0.93301 -1.15239,-1.41081 z m -112.22611,2.35131 c -0.4177,1.60901 -1.05553,3.17071 -2.01022,4.58892 5.28147,2.28171 10.75881,4.50532 16.42799,6.64563 0.3033,-1.65771 0.85595,-3.25772 1.67433,-4.71292 -5.5649,-2.10291 -10.91377,-4.28602 -16.0921,-6.52163 z m 129.07269,2.50121 c -1.58686,0.566 -3.24009,0.88501 -4.90928,0.90401 0.9622,5.86662 1.74892,11.59444 2.40296,17.19286 1.60298,-0.442 3.27078,-0.662 4.97646,-0.543 -0.6641,-5.71502 -1.4894,-11.57465 -2.47014,-17.55447 z m -100.80558,1.39521 a 10.000036,10.000039 0 0 0 -1.71567,0.3 10.000036,10.000039 0 0 0 -7.07452,12.25245 10.000036,10.000039 0 0 0 12.24735,7.06942 10.000036,10.000039 0 0 0 7.06937,-12.24734 10.000036,10.000039 0 0 0 -7.0642,-7.06943 10.000036,10.000039 0 0 0 -3.46233,-0.305 z m 15.69419,12.05614 c -0.24429,1.66821 -0.80527,3.25812 -1.57097,4.73882 4.35339,1.30721 8.75726,2.57371 13.24988,3.77752 4.46633,1.1969 8.88856,2.29151 13.28606,3.32801 0.048,-1.0471 0.19402,-2.10251 0.47543,-3.15231 0.16049,-0.599 0.42332,-1.14371 0.65112,-1.70531 -4.33747,-1.0194 -8.71377,-2.11621 -13.12069,-3.29701 -4.39338,-1.17721 -8.71618,-2.40781 -12.97083,-3.68972 z m 40.30776,2.58901 a 10.000036,10.000039 0 0 0 -10.03043,7.40533 10.000036,10.000039 0 0 0 7.06936,12.25245 10.000036,10.000039 0 0 0 12.24736,-7.07453 10.000036,10.000039 0 0 0 -7.06936,-12.24734 10.000036,10.000039 0 0 0 -2.21693,-0.33601 z m 46.57097,6.46993 a 10.000036,10.000039 0 0 0 -10.03043,7.40533 10.000036,10.000039 0 0 0 7.06936,12.24735 10.000036,10.000039 0 0 0 12.24736,-7.06943 10.000036,10.000039 0 0 0 -7.06936,-12.24735 10.000036,10.000039 0 0 0 -2.21693,-0.336 z m -94.38218,1.86551 c -1.07373,0.61 -2.20454,1.1347 -3.44683,1.4676 -0.4209,0.113 -0.84412,0.127 -1.26608,0.202 2.15445,5.70343 4.38375,11.22055 6.68179,16.53137 1.35539,-0.93101 2.84778,-1.69741 4.51654,-2.14461 0.008,-0.002 0.0127,-0.003 0.0206,-0.005 -2.22918,-5.16402 -4.40934,-10.50234 -6.50608,-16.05076 z m 62.36851,1.8139 c -0.01,1.23261 -0.11729,2.47531 -0.44958,3.71552 -0.1129,0.422 -0.30826,0.795 -0.45476,1.1989 6.01582,0.98701 11.91031,1.81341 17.6579,2.48051 -0.12689,-1.6357 -0.0531,-3.30681 0.39275,-4.97132 0.002,-0.009 0.008,-0.009 0.0103,-0.02 v -0.005 c -5.58899,-0.654 -11.3009,-1.437 -17.15664,-2.39781 z m -27.78651,7.47243 c -4.5851,3.75422 -9.13498,7.28943 -13.64263,10.64534 1.17799,1.16351 2.14666,2.54751 2.89389,4.07732 4.6278,-3.43761 9.29496,-7.07843 13.99403,-10.92444 -1.28592,-1.09101 -2.39213,-2.36221 -3.24529,-3.79822 z m -25.09417,11.29655 a 10.000036,10.000039 0 0 0 -1.71567,0.305 10.000036,10.000039 0 0 0 -7.06936,12.24735 10.000036,10.000039 0 0 0 12.25253,7.06932 10.000036,10.000039 0 0 0 7.06936,-12.24734 10.000036,10.000039 0 0 0 -7.07453,-7.06933 10.000036,10.000039 0 0 0 -3.46233,-0.305 z m 87.67455,2.1084 c -1.62237,0.36001 -3.29736,0.45701 -5.00229,0.24801 0.1153,5.99342 0.0379,11.73344 -0.28422,17.09976 -0.84571,14.09056 -3.19798,25.8557 -6.83682,34.32884 -3.63884,8.47323 -8.40785,13.47725 -14.09739,15.00165 -5.68954,1.52451 -12.32154,-0.429 -19.70946,-5.94792 -7.38791,-5.51852 -15.29076,-14.52876 -23.06844,-26.3086 -2.9544,-4.47462 -5.88276,-9.39304 -8.77469,-14.62446 -1.3108,0.99801 -2.82188,1.75211 -4.45969,2.27891 2.97597,5.38822 6.00356,10.46974 9.06408,15.10516 7.98783,12.09815 16.15442,21.52078 24.25183,27.56941 8.09739,6.04852 16.34108,8.80343 23.98829,6.75412 7.64714,-2.04901 13.41126,-8.55693 17.39952,-17.84387 3.98826,-9.28683 6.36613,-21.54228 7.23473,-36.01354 0.3335,-5.55662 0.41285,-11.48014 0.29455,-17.64747 z" />
    <g
       id="path9663-8-2-3-5"
       style="fill:#ccccff;fill-opacity:1"
       transform="matrix(10.000036,0,0,10.000039,-500.18846,-1061.8125)">
      <path
         style="color:#000000;fill:#ccccff;fill-opacity:1;stroke-width:0.75;stroke-linecap:round;-inkscape-stroke:none"
         d="m 68.563141,135.6044 h 3.5"
         id="path17107-3" />
      <path
         style="color:#000000;fill:#ccccff;fill-opacity:1;stroke-linecap:round;-inkscape-stroke:none"
         d="m 68.5625,135.22852 a 0.375,0.375 0 0 0 -0.375,0.375 0.375,0.375 0 0 0 0.375,0.375 h 3.5 a 0.375,0.375 0 0 0 0.375,-0.375 0.375,0.375 0 0 0 -0.375,-0.375 z"
         id="path17109-0" />
    </g>
    <g
       id="path9663-8-2-3-9-8"
       style="fill:#ccccff;fill-opacity:1"
       transform="matrix(10.000036,0,0,10.000039,-500.18846,-1061.8125)">
      <path
         style="color:#000000;fill:#ccccff;fill-opacity:1;stroke-width:0.75;stroke-linecap:round;-inkscape-stroke:none"
         d="m 67.563141,136.6044 h 3.5"
         id="path17119-0" />
      <path
         style="color:#000000;fill:#ccccff;fill-opacity:1;stroke-linecap:round;-inkscape-stroke:none"
         d="m 67.5625,136.22852 a 0.375,0.375 0 0 0 -0.375,0.375 0.375,0.375 0 0 0 0.375,0.375 h 3.5 a 0.375,0.375 0 0 0 0.375,-0.375 0.375,0.375 0 0 0 -0.375,-0.375 z"
         id="path17121-6" />
    </g>
    <g
       id="path9663-8-2-3-9-2-7"
       style="fill:#ccccff;fill-opacity:1"
       transform="matrix(10.000036,0,0,10.000039,-500.18846,-1061.8125)">
      <path
         style="color:#000000;fill:#ccccff;fill-opacity:1;stroke-width:0.75;stroke-linecap:round;-inkscape-stroke:none"
         d="m 69.188141,137.6044 h 1"
         id="path17125-7" />
      <path
         style="color:#000000;fill:#ccccff;fill-opacity:1;stroke-linecap:round;-inkscape-stroke:none"
         d="m 69.1875,137.22852 a 0.375,0.375 0 0 0 -0.375,0.375 0.375,0.375 0 0 0 0.375,0.375 h 1 a 0.375,0.375 0 0 0 0.375,-0.375 0.375,0.375 0 0 0 -0.375,-0.375 z"
         id="path17127-0" />
    </g>
    <g
       id="path9663-8-2-3-7-8"
       style="fill:#ccccff;fill-opacity:1"
       transform="matrix(10.000036,0,0,10.000039,-500.18846,-1061.8125)">
      <path
         style="color:#000000;fill:#ccccff;fill-opacity:1;stroke-width:0.75;stroke-linecap:round;-inkscape-stroke:none"
         d="m 68.063141,134.6044 h 2.99985"
         id="path17113-5" />
      <path
         style="color:#000000;fill:#ccccff;fill-opacity:1;stroke-linecap:round;-inkscape-stroke:none"
         d="m 68.0625,134.22852 a 0.375,0.375 0 0 0 -0.375,0.375 0.375,0.375 0 0 0 0.375,0.375 h 3 a 0.375,0.375 0 0 0 0.375,-0.375 0.375,0.375 0 0 0 -0.375,-0.375 z"
         id="path17115-6" />
    </g>
  </g>
</svg>
