<?xml version="1.0" encoding="UTF-8" standalone="no"?>
<!-- Created with Inkscape (http://www.inkscape.org/) -->

<svg
   width="105mm"
   height="35.000008mm"
   viewBox="0 0 105 35.000008"
   version="1.1"
   id="svg5"
   inkscape:version="1.1.2 (b8e25be833, 2022-02-05)"
   sodipodi:docname="logo.svg"
   xmlns:inkscape="http://www.inkscape.org/namespaces/inkscape"
   xmlns:sodipodi="http://sodipodi.sourceforge.net/DTD/sodipodi-0.dtd"
   xmlns="http://www.w3.org/2000/svg"
   xmlns:svg="http://www.w3.org/2000/svg">
  <sodipodi:namedview
     id="namedview7"
     pagecolor="#ffffff"
     bordercolor="#666666"
     borderopacity="1.0"
     inkscape:pageshadow="2"
     inkscape:pageopacity="0.0"
     inkscape:pagecheckerboard="0"
     inkscape:document-units="mm"
     showgrid="false"
     inkscape:zoom="4.3994184"
     inkscape:cx="127.1759"
     inkscape:cy="64.78129"
     inkscape:window-width="2544"
     inkscape:window-height="1353"
     inkscape:window-x="0"
     inkscape:window-y="0"
     inkscape:window-maximized="0"
     inkscape:current-layer="layer1"
     showguides="false" />
  <defs
     id="defs2" />
  <g
     inkscape:label="Layer 1"
     inkscape:groupmode="layer"
     id="layer1"
     transform="translate(-17.188141,-118.47939)">
    <rect
       style="font-variation-settings:normal;opacity:1;fill:#000012;fill-opacity:1;stroke:none;stroke-width:0.771593;stroke-linecap:round;stroke-linejoin:miter;stroke-miterlimit:4;stroke-dasharray:none;stroke-dashoffset:0;stroke-opacity:1;paint-order:markers stroke fill;stop-color:#000000;stop-opacity:1"
       id="rect16674"
       width="35"
       height="35"
       x="52.188141"
       y="118.4794" />
    <rect
       style="font-variation-settings:normal;fill:#000012;fill-opacity:1;stroke:none;stroke-width:0.771593;stroke-linecap:round;stroke-linejoin:miter;stroke-miterlimit:4;stroke-dasharray:none;stroke-dashoffset:0;stroke-opacity:1;paint-order:markers stroke fill;stop-color:#000000"
       id="rect16674-0"
       width="35"
       height="35"
       x="87.188141"
       y="118.47939" />
    <path
       id="path858"
       style="color:#000000;fill:#ccccff;fill-opacity:1;stroke-width:1;stroke-linecap:round;stroke-linejoin:round;-inkscape-stroke:none;paint-order:markers stroke fill"
       d="m 66.923181,121.28317 c -0.402992,-0.11885 -0.800506,-0.13643 -1.182875,-0.0339 -0.76471,0.20491 -1.340864,0.85589 -1.73969,1.78457 -0.398827,0.92868 -0.635066,2.15362 -0.721925,3.60073 -0.03332,0.55519 -0.04152,1.14659 -0.02991,1.76283 0.162342,-0.0359 0.330215,-0.0452 0.500811,-0.0242 -0.01148,-0.59902 -0.0038,-1.17292 0.02838,-1.70918 0.08458,-1.40903 0.318098,-2.58436 0.68198,-3.43168 0.363883,-0.84732 0.840915,-1.34762 1.409867,-1.50006 0.248917,-0.0667 0.515809,-0.0669 0.799238,1.6e-4 0.364422,0.0862 0.756378,0.28342 1.17195,0.59382 0.738792,0.55185 1.530324,1.45313 2.308086,2.63109 0.295533,0.44762 0.588349,0.9396 0.877543,1.46296 0.131175,-0.10005 0.281956,-0.17603 0.445964,-0.22879 -0.297638,-0.53887 -0.600003,-1.04662 -0.906083,-1.51018 -0.798781,-1.20983 -1.617203,-2.15172 -2.426936,-2.75658 -0.40487,-0.30242 -0.813415,-0.5227 -1.216399,-0.64158 z m 12.507216,3.35185 c -0.408325,-0.0985 -0.87238,-0.11206 -1.374221,-0.0526 -1.003679,0.11896 -2.183903,0.52533 -3.480572,1.17366 -0.496741,0.24836 -1.012231,0.53663 -1.539152,0.85446 0.111813,0.12231 0.206289,0.26222 0.273226,0.41987 0.511167,-0.30813 1.01039,-0.58706 1.489415,-0.82657 1.26255,-0.63127 2.399164,-1.0159 3.314909,-1.12443 0.457866,-0.0543 0.854606,-0.0404 1.189057,0.0388 0.334463,0.0792 0.606767,0.22418 0.815032,0.43239 0.416501,0.4165 0.578979,1.08813 0.470454,2.00388 -0.10853,0.91573 -0.492716,2.05177 -1.124,3.31432 -0.239611,0.47921 -0.518945,0.97869 -0.827319,1.49029 0.151485,0.0634 0.292733,0.15495 0.419901,0.26981 0.317289,-0.52661 0.605286,-1.04157 0.853439,-1.53787 0.648338,-1.29667 1.056579,-2.47498 1.175529,-3.47866 0.118953,-1.00367 -0.05503,-1.85567 -0.614829,-2.41547 -0.279906,-0.2799 -0.632531,-0.4634 -1.040869,-0.5619 z m -6.662627,4.21417 c -0.135386,0.0929 -0.283976,0.16952 -0.450603,0.21416 -9.16e-4,2.4e-4 -0.0018,9e-5 -0.0028,3e-4 0.222669,0.51649 0.44057,1.05036 0.65002,1.60527 0.107205,-0.0608 0.220187,-0.11317 0.344171,-0.14639 0.04185,-0.0111 0.08392,-0.0171 0.125878,-0.0246 -0.214853,-0.56896 -0.437579,-1.11893 -0.666711,-1.6488 z m -2.186599,-0.58072 c -0.462586,0.34379 -0.929407,0.70799 -1.399125,1.09259 0.128573,0.1093 0.23918,0.23681 0.324399,0.38064 0.460699,-0.37718 0.918016,-0.73216 1.370902,-1.06913 -0.118456,-0.11673 -0.221154,-0.2504 -0.296176,-0.4041 z m 0.465531,2.63922 c -0.446785,-0.11973 -0.889588,-0.22905 -1.329637,-0.33278 -0.0047,0.10543 -0.01926,0.21164 -0.04757,0.31734 -0.01591,0.0594 -0.04148,0.11334 -0.06401,0.16903 0.433716,0.10183 0.871401,0.21103 1.311908,0.32906 0.439332,0.11771 0.871347,0.24176 1.296681,0.36991 0.02454,-0.16679 0.08023,-0.32569 0.156887,-0.47369 -0.435014,-0.13085 -0.875097,-0.2586 -1.32422,-0.37895 z m -4.228778,-0.91376 c -0.601491,-0.0985 -1.190353,-0.18071 -1.765052,-0.24718 0.0126,0.16337 0.0046,0.33025 -0.03994,0.49648 -3.09e-4,9.5e-4 -0.001,0.002 -0.0013,0.003 0.55869,0.0652 1.129814,0.14379 1.715163,0.23969 0.001,-0.12288 0.01209,-0.24676 0.04522,-0.3704 0.01147,-0.0428 0.03113,-0.081 0.04605,-0.12195 z m 8.349749,2.23784 c -0.03029,0.16598 -0.08513,0.32583 -0.167,0.47152 0.556843,0.21039 1.092811,0.42893 1.610945,0.65261 0.04198,-0.16093 0.106779,-0.31647 0.202507,-0.45826 -0.529225,-0.22897 -1.078272,-0.45111 -1.646445,-0.66587 z m 4.305782,1.96211 c -0.04993,0.15853 -0.126228,0.30839 -0.229618,0.44565 0.524393,0.28979 1.017405,0.58304 1.465737,0.87905 1.177977,0.77777 2.081173,1.5701 2.633027,2.3089 0.551857,0.73878 0.745212,1.39976 0.59276,1.96872 -0.152449,0.56894 -0.650785,1.04618 -1.498103,1.41006 -0.847316,0.36388 -2.025679,0.59848 -3.434714,0.68305 -0.535126,0.0321 -1.107674,0.0401 -1.705265,0.0289 0.02103,0.16369 0.01127,0.33254 -0.0251,0.50098 0.615189,0.0116 1.205848,0.003 1.760191,-0.0302 1.447117,-0.0869 2.672555,-0.32467 3.601234,-0.7235 0.928685,-0.39882 1.579539,-0.97523 1.784443,-1.73995 0.204904,-0.76471 -0.07055,-1.58931 -0.675399,-2.39905 -0.604847,-0.80974 -1.547739,-1.6264 -2.757551,-2.42518 -0.464115,-0.30644 -0.972226,-0.6093 -1.511641,-0.9074 z m -17.370388,-4.65334 c -0.615389,-0.0115 -1.206071,-0.004 -1.760558,0.0296 -1.447119,0.0868 -2.670018,0.3232 -3.598703,0.72203 -0.928686,0.39883 -1.581534,0.97469 -1.786439,1.73942 -0.2049,0.76469 0.07254,1.58985 0.677397,2.39958 0.60485,0.80974 1.545208,1.62786 2.755019,2.42664 0.464493,0.30669 0.973191,0.6096 1.513138,0.90781 0.05004,-0.15853 0.126597,-0.3083 0.230119,-0.44552 -0.525087,-0.28994 -1.018781,-0.58375 -1.467601,-0.88008 -1.177978,-0.77776 -2.079174,-1.56957 -2.63103,-2.30836 -0.551853,-0.7388 -0.746308,-1.40167 -0.593859,-1.97061 0.152452,-0.56895 0.651888,-1.0443 1.499202,-1.40818 0.847317,-0.36388 2.02368,-0.59901 3.432718,-0.68358 0.53528,-0.0321 1.107952,-0.0399 1.705764,-0.0287 -0.02117,-0.1633 -0.01116,-0.33185 0.02483,-0.49998 z m 4.862818,1.77003 c -0.330806,0.31121 -0.661274,0.62853 -0.98996,0.95722 -0.327316,0.3273 -0.643531,0.65629 -0.953708,0.98563 0.08865,0.0566 0.173798,0.1207 0.250886,0.19777 0.04383,0.0438 0.07799,0.0933 0.115207,0.14107 0.305075,-0.32449 0.618746,-0.64838 0.941174,-0.9708 0.32136,-0.32137 0.644312,-0.63393 0.9677,-0.93803 -0.13221,-0.10448 -0.241365,-0.23261 -0.331299,-0.37286 z m 7.416166,1.99233 c -0.0933,0.0483 -0.191935,0.0885 -0.297165,0.11672 -0.05998,0.0161 -0.119889,0.0205 -0.179987,0.0288 0.128677,0.42681 0.252711,0.86067 0.37083,1.30149 0.117747,0.43944 0.227163,0.87538 0.328983,1.30793 0.156691,-0.0622 0.321953,-0.0941 0.488452,-0.10183 -0.104151,-0.44196 -0.214133,-0.88674 -0.334406,-1.33562 -0.119735,-0.44684 -0.246532,-0.88458 -0.376707,-1.3175 z m -10.428042,-2.00882 c -0.160299,0.0441 -0.327238,0.0669 -0.497816,0.0549 0.06624,0.57194 0.148262,1.15811 0.246224,1.75657 0.158909,-0.0567 0.324843,-0.0872 0.491999,-0.0891 -0.09628,-0.58776 -0.175043,-1.16149 -0.240407,-1.72237 z m 13.037124,3.5026 c -0.335185,0.45011 -0.687697,0.90417 -1.062575,1.36199 0.105872,0.0622 0.205742,0.13764 0.296254,0.22811 0.03082,0.0308 0.05339,0.0664 0.08093,0.0993 0.385964,-0.47153 0.751676,-0.94045 1.096515,-1.40479 -0.147621,-0.0708 -0.287941,-0.16091 -0.409532,-0.28254 -6.22e-4,-6.3e-4 -9.75e-4,-0.001 -0.0015,-0.002 z m -3.003067,3.57051 c -0.305169,0.32459 -0.61877,0.64877 -0.941308,0.97131 -0.32128,0.32128 -0.643766,0.63368 -0.967064,0.93765 0.131997,0.10463 0.240935,0.23293 0.330666,0.37322 0.33091,-0.31143 0.661325,-0.62893 0.990092,-0.9577 0.327057,-0.32706 0.643039,-0.65566 0.95294,-0.98478 -0.08847,-0.0566 -0.173098,-0.12164 -0.250118,-0.19862 -0.04383,-0.0438 -0.07799,-0.0933 -0.115208,-0.14108 z m -9.216952,-2.46553 c -0.156621,0.0621 -0.322283,0.093 -0.488684,0.10071 0.104014,0.44219 0.21348,0.88702 0.333775,1.33597 0.119631,0.44646 0.246165,0.88427 0.376341,1.31688 0.09329,-0.0483 0.191927,-0.0885 0.297164,-0.11672 0.05942,-0.0159 0.119016,-0.0273 0.178595,-0.0356 -0.127895,-0.42453 -0.2516,-0.85562 -0.369077,-1.29407 -0.117663,-0.4391 -0.22658,-0.87492 -0.328119,-1.30715 z m -1.701312,-0.42915 c -0.385462,0.47075 -0.750385,0.93898 -1.094849,1.40256 0.147676,0.0708 0.287024,0.16387 0.408732,0.28554 7.22e-4,7.2e-4 0.0014,0.001 0.0022,0.002 0.335919,-0.4511 0.689334,-0.90673 1.065144,-1.36558 -0.106382,-0.0625 -0.208447,-0.13381 -0.299321,-0.22465 -0.0311,-0.0311 -0.05403,-0.0669 -0.08181,-0.1 z m 12.602913,3.38004 c -0.158686,0.0566 -0.324352,0.0885 -0.49127,0.0904 0.09622,0.58666 0.174806,1.15926 0.24021,1.7191 0.160297,-0.0442 0.327115,-0.0663 0.497683,-0.0544 -0.06641,-0.5715 -0.14855,-1.15709 -0.246624,-1.75507 z m -12.907621,-0.25023 c -0.04177,0.1609 -0.105543,0.31685 -0.201012,0.45867 0.528146,0.22817 1.076171,0.45039 1.643087,0.66442 0.03033,-0.16577 0.08553,-0.32537 0.167367,-0.47089 -0.556488,-0.21029 -1.091613,-0.42864 -1.609444,-0.6522 z m 11.598629,3.10888 c -0.558897,-0.0654 -1.130091,-0.14375 -1.715663,-0.23983 -9.55e-4,0.12326 -0.01175,0.24751 -0.04498,0.37153 -0.01129,0.0422 -0.03086,0.0796 -0.04551,0.11995 0.601579,0.0987 1.190662,0.1811 1.765419,0.24781 -0.01269,-0.16357 -0.005,-0.33065 0.03958,-0.4971 2.33e-4,-8.7e-4 8.8e-4,-8e-4 0.0011,-0.002 z m -4.59333,-0.8151 c -0.433746,-0.10194 -0.871088,-0.21146 -1.311778,-0.32954 -0.439336,-0.11772 -0.871974,-0.24089 -1.297438,-0.36908 -0.02443,0.16682 -0.08032,0.32564 -0.15689,0.47371 0.435338,0.13072 0.875741,0.25763 1.325002,0.37801 0.446631,0.11969 0.88889,0.22886 1.328639,0.33251 0.0048,-0.10471 0.01941,-0.21022 0.04755,-0.3152 0.01605,-0.0599 0.04213,-0.11424 0.06491,-0.1704 z m 6.356901,2.66311 c -0.162237,0.036 -0.329951,0.0457 -0.500444,0.0248 0.01153,0.59934 0.0042,1.17319 -0.02801,1.70982 -0.08457,1.40905 -0.319993,2.58547 -0.683876,3.43278 -0.363882,0.84732 -0.840917,1.34761 -1.409868,1.50006 -0.568953,0.15245 -1.232262,-0.0426 -1.971051,-0.5945 -0.738789,-0.55185 -1.52869,-1.45321 -2.306455,-2.63119 -0.295439,-0.44746 -0.588485,-0.93931 -0.877677,-1.46245 -0.13108,0.0998 -0.282049,0.17561 -0.44583,0.22829 0.297596,0.53882 0.600032,1.04665 0.906083,1.51018 0.79878,1.20981 1.615435,2.15231 2.425173,2.75717 0.809736,0.60485 1.634558,0.88042 2.399276,0.67549 0.764711,-0.2049 1.340864,-0.85588 1.739689,-1.78457 0.398825,-0.92868 0.636833,-2.15422 0.723692,-3.60133 0.03335,-0.55567 0.04114,-1.14785 0.02931,-1.76458 z m -15.808566,-4.23072 c -0.317761,0.52706 -0.606461,1.04234 -0.854839,1.5391 -0.648337,1.29666 -1.053451,2.47528 -1.172399,3.47896 -0.118946,1.00368 0.05349,1.85738 0.613298,2.41719 0.559801,0.5598 1.412949,0.73171 2.416625,0.61275 1.003677,-0.11895 2.181274,-0.52549 3.477943,-1.17383 0.498109,-0.24905 1.015032,-0.53832 1.543578,-0.85701 -0.111814,-0.1221 -0.203596,-0.2622 -0.270591,-0.41971 -0.513378,0.30976 -1.014437,0.5904 -1.495383,0.83088 -1.262544,0.63128 -2.399037,1.01538 -3.314774,1.12392 -0.915742,0.10851 -1.587224,-0.0541 -2.003731,-0.47054 -0.416506,-0.41651 -0.579483,-1.08828 -0.470954,-2.00402 0.108525,-0.91574 0.492858,-2.05226 1.124134,-3.31481 0.239806,-0.47961 0.519436,-0.97926 0.828085,-1.49117 -0.152192,-0.0635 -0.293341,-0.15614 -0.420997,-0.27169 z m 6.092304,1.96144 c -0.107373,0.061 -0.220574,0.11347 -0.344802,0.14676 -0.04209,0.0113 -0.08412,0.0127 -0.126316,0.0202 0.215444,0.57034 0.438465,1.12189 0.668268,1.65297 0.135538,-0.0931 0.284364,-0.16981 0.451239,-0.21453 7.55e-4,-2e-4 0.0015,-2.5e-4 0.0023,-4.2e-4 -0.222918,-0.5164 -0.440979,-1.05008 -0.650653,-1.60492 z m 3.458135,0.92868 c -0.458508,0.37542 -0.913543,0.72889 -1.364307,1.06448 0.117799,0.11635 0.214625,0.25464 0.289348,0.40762 0.462778,-0.34376 0.92972,-0.70786 1.399625,-1.09246 -0.128591,-0.1091 -0.23935,-0.23604 -0.324666,-0.37964 z" />
    <path
       id="path3848"
       style="font-variation-settings:normal;opacity:1;fill:#ccccff;fill-opacity:1;stroke:none;stroke-width:1;stroke-linecap:round;stroke-linejoin:round;stroke-miterlimit:4;stroke-dasharray:none;stroke-dashoffset:0;stroke-opacity:1;paint-order:markers stroke fill;stop-color:#000000;stop-opacity:1"
       d="m 72.188003,126.64845 a 1,1 0 0 0 -0.517325,-5e-5 1,1 0 0 0 -0.707399,1.22444 1,1 0 0 0 1.224941,0.70753 1,1 0 0 0 0.707033,-1.22507 1,1 0 0 0 -0.70725,-0.70685 z m -3.707485,2.88904 a 1,1 0 0 0 -1.22467,0.70706 1,1 0 0 0 0.707063,1.22467 1,1 0 0 0 1.22467,-0.70706 1,1 0 0 0 -0.707063,-1.22467 z m 5.474841,1.46858 a 1,1 0 0 0 -0.517325,-5e-5 1,1 0 0 0 -0.707399,1.22444 1,1 0 0 0 1.224941,0.70753 1,1 0 0 0 0.707034,-1.22507 1,1 0 0 0 -0.707251,-0.70685 z m 4.356849,1.76554 a 1,1 0 0 0 -0.966054,0.25902 1,1 0 0 0 -9.4e-5,1.41396 1,1 0 0 0 1.413963,1e-4 1,1 0 0 0 2.28e-4,-1.41447 1,1 0 0 0 -0.448043,-0.25861 z m -14.489135,-3.88182 a 1,1 0 0 0 -1.224804,0.70756 1,1 0 0 0 0.707064,1.22467 1,1 0 0 0 1.225169,-0.70693 1,1 0 0 0 -0.707429,-1.2253 z m 0.647966,4.6558 a 1,1 0 0 0 -0.966054,0.25902 1,1 0 0 0 4.04e-4,1.4141 1,1 0 0 0 1.413963,9e-5 1,1 0 0 0 9.5e-5,-1.41396 1,1 0 0 0 -0.448408,-0.25925 z m 10.952079,2.93621 a 1,1 0 0 0 -0.96592,0.25852 1,1 0 0 0 -2.28e-4,1.41446 1,1 0 0 0 1.414462,2.3e-4 1,1 0 0 0 -2.71e-4,-1.4146 1,1 0 0 0 -0.448043,-0.25861 z m 0.6476,4.65516 a 1,1 0 0 0 -1.22467,0.70707 1,1 0 0 0 0.707063,1.22467 1,1 0 0 0 1.224671,-0.70707 1,1 0 0 0 -0.707064,-1.22467 z m -14.488636,-3.88168 a 1,1 0 0 0 -0.965421,0.25865 1,1 0 0 0 -2.28e-4,1.41447 1,1 0 0 0 1.414097,-4.1e-4 1,1 0 0 0 9.4e-5,-1.41396 1,1 0 0 0 -0.448542,-0.25875 z m 4.35595,1.7669 a 1,1 0 0 0 -0.517824,-1.9e-4 1,1 0 0 0 -0.707034,1.22508 1,1 0 0 0 1.224576,0.7069 1,1 0 0 0 0.706899,-1.22458 1,1 0 0 0 -0.706617,-0.70721 z m 5.475607,1.46772 a 1,1 0 0 0 -1.22467,0.70706 1,1 0 0 0 0.70693,1.22517 1,1 0 0 0 1.224804,-0.70756 1,1 0 0 0 -0.707064,-1.22467 z m -3.707351,2.88853 a 1,1 0 0 0 -0.517958,3.2e-4 1,1 0 0 0 -0.706899,1.22457 1,1 0 0 0 1.225074,0.70703 1,1 0 0 0 0.7069,-1.22457 1,1 0 0 0 -0.707117,-0.70735 z" />
    <g
       id="path9663">
      <path
         style="color:#000000;fill:#ccccff;fill-opacity:1;stroke-width:0.75;stroke-linecap:round;-inkscape-stroke:none"
         d="m 58.063141,128.1044 h 3.5"
         id="path17137" />
      <path
         style="color:#000000;fill:#ccccff;fill-opacity:1;stroke-linecap:round;-inkscape-stroke:none"
         d="m 58.0625,127.72852 a 0.375,0.375 0 0 0 -0.375,0.375 0.375,0.375 0 0 0 0.375,0.375 h 3.5 a 0.375,0.375 0 0 0 0.375,-0.375 0.375,0.375 0 0 0 -0.375,-0.375 z"
         id="path17139" />
    </g>
    <g
       id="path9663-8"
       style="fill:#ccccff;fill-opacity:1">
      <path
         style="color:#000000;fill:#ccccff;fill-opacity:1;stroke-width:0.75;stroke-linecap:round;-inkscape-stroke:none"
         d="m 80.563141,133.1044 h 3.5"
         id="path17101" />
      <path
         style="color:#000000;fill:#ccccff;fill-opacity:1;stroke-linecap:round;-inkscape-stroke:none"
         d="m 80.5625,132.72852 a 0.375,0.375 0 0 0 -0.375,0.375 0.375,0.375 0 0 0 0.375,0.375 h 3.5 a 0.375,0.375 0 0 0 0.375,-0.375 0.375,0.375 0 0 0 -0.375,-0.375 z"
         id="path17103" />
    </g>
    <g
       id="path9663-8-2"
       style="fill:#ccccff;fill-opacity:1">
      <path
         style="color:#000000;fill:#ccccff;fill-opacity:1;stroke-width:0.75;stroke-linecap:round;-inkscape-stroke:none"
         d="m 61.063141,141.8544 h 3.5"
         id="path17131" />
      <path
         style="color:#000000;fill:#ccccff;fill-opacity:1;stroke-linecap:round;-inkscape-stroke:none"
         d="m 61.0625,141.47852 a 0.375,0.375 0 0 0 -0.375,0.375 0.375,0.375 0 0 0 0.375,0.375 h 3.5 a 0.375,0.375 0 0 0 0.375,-0.375 0.375,0.375 0 0 0 -0.375,-0.375 z"
         id="path17133" />
    </g>
    <g
       id="path9663-8-2-3"
       style="fill:#ccccff;fill-opacity:1">
      <path
         style="color:#000000;fill:#ccccff;fill-opacity:1;stroke-width:0.75;stroke-linecap:round;-inkscape-stroke:none"
         d="m 68.563141,135.6044 h 3.5"
         id="path17107" />
      <path
         style="color:#000000;fill:#ccccff;fill-opacity:1;stroke-linecap:round;-inkscape-stroke:none"
         d="m 68.5625,135.22852 a 0.375,0.375 0 0 0 -0.375,0.375 0.375,0.375 0 0 0 0.375,0.375 h 3.5 a 0.375,0.375 0 0 0 0.375,-0.375 0.375,0.375 0 0 0 -0.375,-0.375 z"
         id="path17109" />
    </g>
    <g
       id="path9663-8-2-3-9"
       style="fill:#ccccff;fill-opacity:1">
      <path
         style="color:#000000;fill:#ccccff;fill-opacity:1;stroke-width:0.75;stroke-linecap:round;-inkscape-stroke:none"
         d="m 67.563141,136.6044 h 3.5"
         id="path17119" />
      <path
         style="color:#000000;fill:#ccccff;fill-opacity:1;stroke-linecap:round;-inkscape-stroke:none"
         d="m 67.5625,136.22852 a 0.375,0.375 0 0 0 -0.375,0.375 0.375,0.375 0 0 0 0.375,0.375 h 3.5 a 0.375,0.375 0 0 0 0.375,-0.375 0.375,0.375 0 0 0 -0.375,-0.375 z"
         id="path17121" />
    </g>
    <g
       id="path9663-8-2-3-9-2"
       style="fill:#ccccff;fill-opacity:1">
      <path
         style="color:#000000;fill:#ccccff;fill-opacity:1;stroke-width:0.75;stroke-linecap:round;-inkscape-stroke:none"
         d="m 69.188141,137.6044 h 1"
         id="path17125" />
      <path
         style="color:#000000;fill:#ccccff;fill-opacity:1;stroke-linecap:round;-inkscape-stroke:none"
         d="m 69.1875,137.22852 a 0.375,0.375 0 0 0 -0.375,0.375 0.375,0.375 0 0 0 0.375,0.375 h 1 a 0.375,0.375 0 0 0 0.375,-0.375 0.375,0.375 0 0 0 -0.375,-0.375 z"
         id="path17127" />
    </g>
    <g
       id="path9663-8-2-3-7"
       style="fill:#ccccff;fill-opacity:1">
      <path
         style="color:#000000;fill:#ccccff;fill-opacity:1;stroke-width:0.75;stroke-linecap:round;-inkscape-stroke:none"
         d="m 68.063141,134.6044 h 2.99985"
         id="path17113" />
      <path
         style="color:#000000;fill:#ccccff;fill-opacity:1;stroke-linecap:round;-inkscape-stroke:none"
         d="m 68.0625,134.22852 a 0.375,0.375 0 0 0 -0.375,0.375 0.375,0.375 0 0 0 0.375,0.375 h 3 a 0.375,0.375 0 0 0 0.375,-0.375 0.375,0.375 0 0 0 -0.375,-0.375 z"
         id="path17115" />
    </g>
    <path
       id="path858-3"
       style="color:#000000;fill:#ccccff;fill-opacity:1;stroke-width:1;stroke-linecap:round;stroke-linejoin:round;-inkscape-stroke:none;paint-order:markers stroke fill"
       d="m 101.92285,121.28348 c -0.40298,-0.11888 -0.80052,-0.13639 -1.18287,-0.0339 -0.764713,0.20491 -1.340866,0.85589 -1.739691,1.78457 -0.398828,0.92868 -0.635068,2.15362 -0.721927,3.60074 -0.03332,0.55518 -0.04152,1.14658 -0.02991,1.76282 0.16234,-0.0359 0.330215,-0.0452 0.50081,-0.0242 -0.01148,-0.59902 -0.0038,-1.17292 0.02838,-1.70919 0.08458,-1.40903 0.318099,-2.58436 0.68198,-3.43168 0.363883,-0.84732 0.840918,-1.34761 1.409868,-1.50006 0.24891,-0.0667 0.51581,-0.0669 0.79924,1.6e-4 0.36441,0.0862 0.75638,0.28341 1.17195,0.59382 0.73879,0.55186 1.53032,1.45313 2.30808,2.6311 0.29553,0.44761 0.58835,0.93959 0.87755,1.46295 0.13117,-0.10005 0.28195,-0.17603 0.44596,-0.22879 -0.29764,-0.53887 -0.60001,-1.04661 -0.90608,-1.51018 -0.79879,-1.20982 -1.61721,-2.15172 -2.42694,-2.75657 -0.40487,-0.30243 -0.81342,-0.5227 -1.2164,-0.64158 z m 12.50722,3.35184 c -0.40834,-0.0985 -0.87238,-0.11205 -1.37422,-0.0526 -1.00368,0.11895 -2.18391,0.52532 -3.48058,1.17365 -0.49674,0.24837 -1.01223,0.53663 -1.53915,0.85446 0.11183,0.12226 0.20629,0.26222 0.27323,0.41988 0.51116,-0.30813 1.01039,-0.58707 1.48941,-0.82658 1.26255,-0.63127 2.39917,-1.0159 3.31491,-1.12442 0.45787,-0.0543 0.85461,-0.0404 1.18906,0.0388 0.33445,0.0792 0.60678,0.22414 0.81503,0.43239 0.4165,0.4165 0.57898,1.08814 0.47046,2.00388 -0.10853,0.91574 -0.49272,2.05177 -1.124,3.31432 -0.23962,0.47922 -0.51895,0.9787 -0.82732,1.4903 0.15147,0.0634 0.29273,0.15496 0.4199,0.2698 0.31729,-0.5266 0.60528,-1.04156 0.85344,-1.53787 0.64834,-1.29667 1.05658,-2.47498 1.17553,-3.47866 0.11895,-1.00367 -0.055,-1.85566 -0.61483,-2.41546 -0.27991,-0.27991 -0.63254,-0.4634 -1.04087,-0.56191 z m -6.66263,4.21417 c -0.13539,0.0929 -0.28398,0.16952 -0.4506,0.21417 -9.2e-4,2.4e-4 -0.002,8e-5 -0.003,3.3e-4 0.22267,0.51649 0.44057,1.05037 0.65002,1.60528 0.10719,-0.0608 0.22018,-0.11317 0.34417,-0.14639 0.0419,-0.0112 0.0839,-0.0171 0.12589,-0.0246 -0.21486,-0.56896 -0.43758,-1.11893 -0.66671,-1.64881 z m -2.18664,-0.58056 c -0.46259,0.34379 -0.92941,0.70799 -1.39913,1.09259 0.12859,0.10927 0.23918,0.23681 0.3244,0.38064 0.4607,-0.37718 0.91802,-0.73216 1.37091,-1.06913 -0.11847,-0.1167 -0.22116,-0.2504 -0.29618,-0.4041 z m 0.46553,2.63921 c -0.44678,-0.11972 -0.88961,-0.22895 -1.32964,-0.33274 -0.005,0.10543 -0.0193,0.21164 -0.0476,0.31734 -0.0159,0.0594 -0.0415,0.11333 -0.064,0.16903 0.43371,0.10183 0.8714,0.21102 1.3119,0.32906 0.43934,0.11771 0.87138,0.24166 1.29669,0.36991 0.0245,-0.16679 0.0802,-0.32569 0.15688,-0.4737 -0.43502,-0.13082 -0.87511,-0.25856 -1.32423,-0.3789 z m -4.22878,-0.91375 c -0.6015,-0.0985 -1.19035,-0.18071 -1.76505,-0.24718 0.0126,0.16337 0.005,0.33024 -0.0399,0.49648 -3.2e-4,0.001 -0.001,0.002 -0.001,0.003 0.5587,0.0652 1.12981,0.14379 1.71516,0.23969 0.001,-0.12289 0.0121,-0.24676 0.0452,-0.3704 0.0115,-0.0428 0.0311,-0.081 0.046,-0.12195 z m 8.34975,2.23784 c -0.0303,0.16597 -0.0851,0.32583 -0.167,0.47152 0.55685,0.21037 1.09281,0.42893 1.61094,0.65261 0.042,-0.16094 0.10679,-0.31648 0.20251,-0.45826 -0.52922,-0.22901 -1.07827,-0.45111 -1.64645,-0.66587 z m 4.30579,1.96211 c -0.05,0.15852 -0.12624,0.30839 -0.22962,0.44565 0.52439,0.28979 1.0174,0.58304 1.46573,0.87905 1.17798,0.77777 2.08118,1.5701 2.63303,2.30889 0.55186,0.73879 0.74521,1.39976 0.59276,1.96872 -0.15245,0.56895 -0.65079,1.04619 -1.4981,1.41007 -0.84732,0.36388 -2.02568,0.59848 -3.43472,0.68305 -0.53512,0.0321 -1.10767,0.0401 -1.70526,0.0289 0.021,0.16369 0.0113,0.33254 -0.0251,0.50098 0.61519,0.0116 1.20585,0.003 1.76019,-0.0302 1.44712,-0.0869 2.67255,-0.32466 3.60123,-0.72349 0.92869,-0.39882 1.57954,-0.97524 1.78444,-1.73995 0.20491,-0.76471 -0.0705,-1.58932 -0.67539,-2.39905 -0.60485,-0.80974 -1.54774,-1.62641 -2.75755,-2.42519 -0.46412,-0.30643 -0.97223,-0.60929 -1.51164,-0.9074 z m -17.370402,-4.65331 c -0.615388,-0.0115 -1.206071,-0.004 -1.760557,0.0296 -1.447117,0.0868 -2.670018,0.3232 -3.598703,0.72203 -0.928686,0.39883 -1.581534,0.97469 -1.786438,1.73941 -0.204902,0.7647 0.07254,1.58986 0.677396,2.39959 0.60485,0.80974 1.545207,1.62786 2.755018,2.42664 0.464493,0.30669 0.973192,0.6096 1.513139,0.90781 0.05008,-0.15852 0.126595,-0.3083 0.230119,-0.44552 -0.525088,-0.28994 -1.018782,-0.58375 -1.467602,-0.88008 -1.177977,-0.77776 -2.079172,-1.56958 -2.631029,-2.30836 -0.551854,-0.7388 -0.746308,-1.40167 -0.593858,-1.97061 0.152452,-0.56896 0.651887,-1.0443 1.499201,-1.40818 0.847318,-0.36389 2.02368,-0.59901 3.432718,-0.68358 0.535279,-0.0321 1.107952,-0.0399 1.705764,-0.0287 -0.02117,-0.16331 -0.01116,-0.33185 0.02483,-0.49998 z m 4.862822,1.77003 c -0.33081,0.3112 -0.66128,0.62852 -0.98996,0.95721 -0.32732,0.32731 -0.64353,0.6563 -0.95371,0.98564 0.0886,0.0566 0.1738,0.12068 0.25089,0.19776 0.0438,0.0438 0.078,0.0933 0.1152,0.14108 0.30508,-0.32449 0.61875,-0.64838 0.94118,-0.97081 0.32135,-0.32136 0.64431,-0.63393 0.9677,-0.93802 -0.13221,-0.1045 -0.24137,-0.23262 -0.3313,-0.37286 z m 7.41612,1.9925 c -0.0933,0.0483 -0.19194,0.0885 -0.29717,0.11672 -0.06,0.0161 -0.1199,0.0205 -0.17999,0.0288 0.12868,0.42681 0.25272,0.86067 0.37083,1.30149 0.11775,0.43944 0.22717,0.87538 0.32899,1.30794 0.15669,-0.0622 0.32195,-0.0941 0.48845,-0.10184 -0.10415,-0.44196 -0.21413,-0.88674 -0.33441,-1.33561 -0.11973,-0.44685 -0.24653,-0.88459 -0.3767,-1.31751 z m -10.428046,-2.00882 c -0.160294,0.0441 -0.327237,0.0669 -0.497817,0.0549 0.06624,0.57193 0.148263,1.1581 0.246224,1.75656 0.158909,-0.0567 0.324845,-0.0872 0.492,-0.0891 -0.09628,-0.58776 -0.175043,-1.16149 -0.240407,-1.72237 z m 13.037046,3.5029 c -0.33519,0.45011 -0.6877,0.90417 -1.06258,1.36199 0.10588,0.0622 0.20575,0.13761 0.29626,0.22811 0.0308,0.0308 0.0534,0.0664 0.0809,0.0993 0.38596,-0.47152 0.75167,-0.94045 1.09651,-1.40479 -0.14763,-0.0708 -0.28793,-0.16094 -0.40953,-0.28254 -6.2e-4,-6.2e-4 -9.8e-4,-0.001 -0.002,-0.002 z m -3.00307,3.57051 c -0.30517,0.32459 -0.61877,0.64877 -0.94131,0.97131 -0.32128,0.32128 -0.64376,0.63368 -0.96706,0.93765 0.13199,0.10464 0.24093,0.23293 0.33066,0.37322 0.33091,-0.31143 0.66133,-0.62893 0.9901,-0.9577 0.32705,-0.32706 0.64304,-0.65566 0.95294,-0.98478 -0.0885,-0.0566 -0.17311,-0.12161 -0.25012,-0.19862 -0.0438,-0.0438 -0.078,-0.0933 -0.11521,-0.14108 z m -9.216851,-2.4659 c -0.156622,0.0621 -0.322285,0.093 -0.488684,0.10071 0.104014,0.44219 0.213479,0.88702 0.333774,1.33597 0.11963,0.44646 0.246164,0.88428 0.37634,1.31688 0.09329,-0.0483 0.191931,-0.0885 0.297161,-0.11672 0.0594,-0.0159 0.11901,-0.0273 0.1786,-0.0356 -0.12789,-0.42453 -0.2516,-0.85563 -0.36907,-1.29407 -0.117665,-0.43911 -0.226582,-0.87493 -0.328121,-1.30716 z m -1.701322,-0.42912 c -0.38546,0.47075 -0.750384,0.93898 -1.094848,1.40256 0.147686,0.0708 0.287032,0.16384 0.408731,0.28554 7.23e-4,7.2e-4 0.0014,0.001 0.0021,0.002 0.335919,-0.4511 0.689333,-0.90673 1.065144,-1.36558 -0.106372,-0.0625 -0.208453,-0.13379 -0.29932,-0.22465 -0.0311,-0.0311 -0.05403,-0.0669 -0.0818,-0.10003 z m 12.602883,3.38014 c -0.15869,0.0566 -0.32435,0.0885 -0.49127,0.0904 0.0962,0.58666 0.17481,1.15925 0.24021,1.7191 0.1603,-0.0442 0.32712,-0.0663 0.49769,-0.0544 -0.0664,-0.57149 -0.14855,-1.15708 -0.24663,-1.75506 z m -12.907617,-0.25023 c -0.04174,0.16091 -0.105541,0.31685 -0.201008,0.45867 0.528134,0.22821 1.076171,0.45039 1.643087,0.66442 0.03033,-0.16577 0.08556,-0.32536 0.167368,-0.47089 -0.556503,-0.21024 -1.091615,-0.42864 -1.609447,-0.6522 z m 11.598617,3.10891 c -0.55889,-0.0654 -1.13009,-0.14374 -1.71566,-0.23983 -9.5e-4,0.12327 -0.0118,0.24752 -0.045,0.37154 -0.0113,0.0422 -0.0309,0.0796 -0.0455,0.11995 0.60157,0.0987 1.19066,0.1811 1.76542,0.24781 -0.0127,-0.16357 -0.005,-0.33065 0.0396,-0.49711 2.3e-4,-8.6e-4 9.3e-4,-0.001 0.001,-0.002 z m -4.59333,-0.81509 c -0.43373,-0.10198 -0.87108,-0.21147 -1.31177,-0.32955 -0.43934,-0.11772 -0.87198,-0.24088 -1.29745,-0.36905 -0.0244,0.16682 -0.0803,0.32563 -0.15689,0.4737 0.43533,0.13075 0.87574,0.25765 1.325,0.37803 0.44663,0.11968 0.88893,0.22872 1.32865,0.33247 0.005,-0.10471 0.0194,-0.21022 0.0475,-0.31521 0.0161,-0.0599 0.0421,-0.11423 0.0649,-0.17039 z m 6.3569,2.66311 c -0.16222,0.036 -0.32995,0.0457 -0.50044,0.0248 0.0115,0.59933 0.004,1.17319 -0.028,1.70982 -0.0846,1.40904 -0.32,2.58547 -0.68388,3.43278 -0.36388,0.84732 -0.84091,1.34761 -1.40987,1.50006 -0.56895,0.15245 -1.23226,-0.0426 -1.97105,-0.59449 -0.73879,-0.55185 -1.52869,-1.45321 -2.30645,-2.63119 -0.29544,-0.44746 -0.58849,-0.93931 -0.87768,-1.46245 -0.13108,0.0998 -0.28205,0.17561 -0.44583,0.22829 0.29759,0.53882 0.60003,1.04665 0.90608,1.51018 0.79878,1.20981 1.61544,2.15231 2.42517,2.75717 0.80974,0.60485 1.63456,0.88042 2.39927,0.67551 0.76472,-0.2049 1.34087,-0.85588 1.73969,-1.78457 0.39883,-0.92868 0.63683,-2.15422 0.7237,-3.60133 0.0333,-0.55567 0.0411,-1.14785 0.0293,-1.76458 z m -15.808473,-4.23105 c -0.317762,0.52706 -0.606464,1.04234 -0.854841,1.5391 -0.648337,1.29666 -1.053451,2.47528 -1.172397,3.47896 -0.118948,1.00368 0.05349,1.85738 0.613296,2.41719 0.559802,0.5598 1.41295,0.73171 2.416622,0.61276 1.003679,-0.11895 2.181274,-0.52549 3.477943,-1.17383 0.49811,-0.24905 1.01503,-0.53832 1.54358,-0.85701 -0.11181,-0.12212 -0.2036,-0.2622 -0.27059,-0.41971 -0.51338,0.30976 -1.01444,0.5904 -1.495384,0.83087 -1.262544,0.63128 -2.399039,1.01539 -3.314774,1.12392 -0.915742,0.10852 -1.587225,-0.0541 -2.003725,-0.47056 -0.416506,-0.41651 -0.579483,-1.08828 -0.470952,-2.00402 0.108522,-0.91574 0.492859,-2.05226 1.124133,-3.31481 0.239807,-0.47961 0.519436,-0.97926 0.828086,-1.49117 -0.152207,-0.0635 -0.29334,-0.15615 -0.420997,-0.27169 z m 6.092303,1.96144 c -0.10737,0.061 -0.22057,0.11347 -0.3448,0.14676 -0.0421,0.0113 -0.0841,0.0127 -0.12632,0.0202 0.21545,0.57034 0.43847,1.12189 0.66827,1.65297 0.13554,-0.0931 0.28436,-0.16981 0.45124,-0.21453 7.5e-4,-2e-4 10e-4,-2.6e-4 0.002,-4.6e-4 -0.22292,-0.5164 -0.44098,-1.05007 -0.65065,-1.60492 z m 3.45812,0.92874 c -0.45851,0.37542 -0.91354,0.72889 -1.36431,1.06448 0.1178,0.11635 0.21463,0.25463 0.28935,0.40762 0.46278,-0.34376 0.92972,-0.70786 1.39962,-1.09246 -0.1286,-0.10906 -0.23935,-0.23604 -0.32466,-0.37964 z" />
    <circle
       style="font-variation-settings:normal;fill:#ccccff;fill-opacity:1;stroke:none;stroke-width:2.2936;stroke-linecap:round;stroke-linejoin:round;stroke-miterlimit:4;stroke-dasharray:none;stroke-dashoffset:0;stroke-opacity:1;paint-order:markers stroke fill;stop-color:#000000"
       id="path1438-4"
       cx="104.68774"
       cy="135.9798"
       r="2" />
    <path
       id="path3848-7"
       style="font-variation-settings:normal;fill:#ccccff;fill-opacity:1;stroke:none;stroke-width:1;stroke-linecap:round;stroke-linejoin:round;stroke-miterlimit:4;stroke-dasharray:none;stroke-dashoffset:0;stroke-opacity:1;paint-order:markers stroke fill;stop-color:#000000"
       d="m 107.18761,126.64884 a 1,1 0 0 0 -0.51733,-5e-5 1,1 0 0 0 -0.7074,1.22444 1,1 0 0 0 1.22495,0.70753 1,1 0 0 0 0.70703,-1.22507 1,1 0 0 0 -0.70725,-0.70685 z m -3.70749,2.88904 a 1,1 0 0 0 -1.22467,0.70706 1,1 0 0 0 0.70707,1.22467 1,1 0 0 0 1.22467,-0.70706 1,1 0 0 0 -0.70707,-1.22467 z m 5.47484,1.46858 a 1,1 0 0 0 -0.51732,-5e-5 1,1 0 0 0 -0.7074,1.22444 1,1 0 0 0 1.22494,0.70753 1,1 0 0 0 0.70704,-1.22507 1,1 0 0 0 -0.70726,-0.70685 z m 4.35685,1.76554 a 1,1 0 0 0 -0.96605,0.25902 1,1 0 0 0 -9e-5,1.41396 1,1 0 0 0 1.41396,1e-4 1,1 0 0 0 2.3e-4,-1.41447 1,1 0 0 0 -0.44805,-0.25861 z m -14.489131,-3.88182 a 1,1 0 0 0 -1.224804,0.70756 1,1 0 0 0 0.707064,1.22467 1,1 0 0 0 1.225169,-0.70693 1,1 0 0 0 -0.707429,-1.2253 z m 0.647966,4.6558 a 1,1 0 0 0 -0.966054,0.25902 1,1 0 0 0 4.04e-4,1.4141 1,1 0 0 0 1.413963,9e-5 1,1 0 0 0 9.5e-5,-1.41396 1,1 0 0 0 -0.448408,-0.25925 z m 10.952075,2.93621 a 1,1 0 0 0 -0.96592,0.25852 1,1 0 0 0 -2.2e-4,1.41446 1,1 0 0 0 1.41446,2.3e-4 1,1 0 0 0 -2.7e-4,-1.4146 1,1 0 0 0 -0.44805,-0.25861 z m 0.6476,4.65516 a 1,1 0 0 0 -1.22467,0.70707 1,1 0 0 0 0.70707,1.22467 1,1 0 0 0 1.22467,-0.70707 1,1 0 0 0 -0.70707,-1.22467 z m -14.488632,-3.88168 a 1,1 0 0 0 -0.965421,0.25865 1,1 0 0 0 -2.28e-4,1.41447 1,1 0 0 0 1.414097,-4.1e-4 1,1 0 0 0 9.4e-5,-1.41396 1,1 0 0 0 -0.448542,-0.25875 z m 4.355952,1.7669 a 1,1 0 0 0 -0.51783,-1.9e-4 1,1 0 0 0 -0.70703,1.22508 1,1 0 0 0 1.22458,0.7069 1,1 0 0 0 0.70689,-1.22458 1,1 0 0 0 -0.70661,-0.70721 z m 5.4756,1.46772 a 1,1 0 0 0 -1.22467,0.70706 1,1 0 0 0 0.70693,1.22517 1,1 0 0 0 1.22481,-0.70756 1,1 0 0 0 -0.70707,-1.22467 z m -3.70735,2.88853 a 1,1 0 0 0 -0.51795,3.2e-4 1,1 0 0 0 -0.7069,1.22457 1,1 0 0 0 1.22507,0.70703 1,1 0 0 0 0.7069,-1.22457 1,1 0 0 0 -0.70712,-0.70735 z" />
    <g
       id="path9663-4"
       style="fill:#ccccff;fill-opacity:1">
      <path
         style="color:#000000;fill:#ccccff;fill-opacity:1;stroke-width:0.75;stroke-linecap:round;-inkscape-stroke:none"
         d="m 93.062747,128.10479 h 3.5"
         id="path17095" />
      <path
         style="color:#000000;fill:#ccccff;fill-opacity:1;stroke-linecap:round;-inkscape-stroke:none"
         d="m 93.0625,127.73047 a 0.375,0.375 0 0 0 -0.375,0.375 0.375,0.375 0 0 0 0.375,0.375 h 3.5 a 0.375,0.375 0 0 0 0.375,-0.375 0.375,0.375 0 0 0 -0.375,-0.375 z"
         id="path17097" />
    </g>
    <g
       id="path9663-8-21"
       style="fill:#ccccff;fill-opacity:1">
      <path
         style="color:#000000;fill:#ccccff;fill-opacity:1;stroke-width:0.75;stroke-linecap:round;-inkscape-stroke:none"
         d="m 115.56275,133.10479 h 3.5"
         id="path17083" />
      <path
         style="color:#000000;fill:#ccccff;fill-opacity:1;stroke-linecap:round;-inkscape-stroke:none"
         d="m 115.5625,132.73047 a 0.375,0.375 0 0 0 -0.375,0.375 0.375,0.375 0 0 0 0.375,0.375 h 3.5 a 0.375,0.375 0 0 0 0.375,-0.375 0.375,0.375 0 0 0 -0.375,-0.375 z"
         id="path17085" />
    </g>
    <g
       id="path9663-8-2-4"
       style="fill:#ccccff;fill-opacity:1">
      <path
         style="color:#000000;fill:#ccccff;fill-opacity:1;stroke-width:0.75;stroke-linecap:round;-inkscape-stroke:none"
         d="m 96.062747,141.85479 h 3.5"
         id="path17089" />
      <path
         style="color:#000000;fill:#ccccff;fill-opacity:1;stroke-linecap:round;-inkscape-stroke:none"
         d="m 96.0625,141.48047 a 0.375,0.375 0 0 0 -0.375,0.375 0.375,0.375 0 0 0 0.375,0.375 h 3.5 a 0.375,0.375 0 0 0 0.375,-0.375 0.375,0.375 0 0 0 -0.375,-0.375 z"
         id="path17091" />
    </g>
    <rect
       style="font-variation-settings:normal;fill:#000012;fill-opacity:1;stroke:none;stroke-width:0.771593;stroke-linecap:round;stroke-linejoin:miter;stroke-miterlimit:4;stroke-dasharray:none;stroke-dashoffset:0;stroke-opacity:1;paint-order:markers stroke fill;stop-color:#000000"
       id="rect16674-6"
       width="35"
       height="35"
       x="17.188141"
       y="118.4794" />
    <path
       id="path858-32"
       style="color:#000000;fill:#ccccff;fill-opacity:1;stroke-width:1;stroke-linecap:round;stroke-linejoin:round;-inkscape-stroke:none;paint-order:markers stroke fill"
       d="m 44.430395,124.63501 c -0.408325,-0.0985 -0.87238,-0.11206 -1.374221,-0.0526 -1.003679,0.11896 -2.183903,0.52533 -3.480572,1.17366 -0.496741,0.24836 -1.012231,0.53663 -1.539152,0.85446 0.111813,0.12231 0.206289,0.26222 0.273226,0.41987 0.511167,-0.30813 1.01039,-0.58706 1.489415,-0.82657 1.26255,-0.63127 2.399164,-1.0159 3.314909,-1.12443 0.457866,-0.0543 0.854606,-0.0404 1.189057,0.0388 0.334463,0.0792 0.606767,0.22418 0.815032,0.43239 0.416496,0.4165 0.578976,1.08813 0.470456,2.00388 -0.10853,0.91573 -0.492718,2.05177 -1.124002,3.31432 -0.239611,0.47921 -0.518945,0.97869 -0.827319,1.49029 0.151485,0.0634 0.292733,0.15495 0.419901,0.26981 0.317289,-0.52661 0.605286,-1.04157 0.853439,-1.53787 0.648341,-1.29667 1.056581,-2.47498 1.175531,-3.47866 0.11895,-1.00367 -0.055,-1.85567 -0.61483,-2.41547 -0.279907,-0.2799 -0.632532,-0.4634 -1.04087,-0.5619 z m -6.662627,4.21417 c -0.135386,0.0929 -0.283976,0.16952 -0.450603,0.21416 -9.16e-4,2.4e-4 -0.0018,9e-5 -0.0028,3e-4 0.222669,0.51649 0.44057,1.05036 0.65002,1.60527 0.107205,-0.0608 0.220187,-0.11317 0.344171,-0.14639 0.04185,-0.0111 0.08392,-0.0171 0.125878,-0.0246 -0.214853,-0.56896 -0.437579,-1.11893 -0.666711,-1.6488 z m -2.186599,-0.58072 c -0.462586,0.34379 -0.929407,0.70799 -1.399125,1.09259 0.128573,0.1093 0.23918,0.23681 0.324399,0.38064 0.460699,-0.37718 0.918016,-0.73216 1.370902,-1.06913 -0.118456,-0.11673 -0.221154,-0.2504 -0.296176,-0.4041 z m 0.465531,2.63922 c -0.446785,-0.11973 -0.889588,-0.22905 -1.329637,-0.33278 -0.0047,0.10543 -0.01926,0.21164 -0.04757,0.31734 -0.01591,0.0594 -0.04148,0.11334 -0.06401,0.16903 0.433716,0.10183 0.871401,0.21103 1.311908,0.32906 0.439332,0.11771 0.871347,0.24176 1.296681,0.36991 0.02454,-0.16679 0.08023,-0.32569 0.156887,-0.47369 -0.435014,-0.13085 -0.875097,-0.2586 -1.32422,-0.37895 z m -4.228778,-0.91376 c -0.601491,-0.0985 -1.190353,-0.18071 -1.765052,-0.24718 0.0126,0.16337 0.0046,0.33025 -0.03994,0.49648 -3.09e-4,9.5e-4 -0.001,0.002 -0.0013,0.003 0.55869,0.0652 1.129814,0.14379 1.715163,0.23969 10e-4,-0.12288 0.01209,-0.24676 0.04522,-0.3704 0.01147,-0.0428 0.03113,-0.081 0.04605,-0.12195 z m 8.349749,2.23784 c -0.03029,0.16598 -0.08513,0.32583 -0.167,0.47152 0.556843,0.21039 1.092811,0.42893 1.610945,0.65261 0.04198,-0.16093 0.106779,-0.31647 0.202507,-0.45826 -0.529225,-0.22897 -1.078272,-0.45111 -1.646445,-0.66587 z m -13.064606,-2.69123 c -0.615389,-0.0115 -1.206071,-0.004 -1.760558,0.0296 -1.447119,0.0868 -2.670018,0.3232 -3.598703,0.72203 -0.928686,0.39883 -1.581534,0.97469 -1.786439,1.73942 -0.2049,0.76469 0.07254,1.58985 0.677397,2.39958 0.60485,0.80974 1.545208,1.62786 2.755019,2.42664 0.464493,0.30669 0.973191,0.6096 1.513138,0.90781 0.05004,-0.15853 0.126597,-0.3083 0.230119,-0.44552 -0.525087,-0.28994 -1.018781,-0.58375 -1.467601,-0.88008 -1.177978,-0.77776 -2.079174,-1.56957 -2.63103,-2.30836 -0.551853,-0.7388 -0.746308,-1.40167 -0.593859,-1.97061 0.152452,-0.56895 0.651888,-1.0443 1.499202,-1.40818 0.847317,-0.36388 2.02368,-0.59901 3.432718,-0.68358 0.53528,-0.0321 1.107952,-0.0399 1.705764,-0.0287 -0.02117,-0.1633 -0.01116,-0.33185 0.02483,-0.49998 z m 4.862818,1.77003 c -0.330806,0.31121 -0.661274,0.62853 -0.98996,0.95722 -0.327316,0.3273 -0.643531,0.65629 -0.953708,0.98563 0.08865,0.0566 0.173798,0.1207 0.250886,0.19777 0.04383,0.0438 0.07799,0.0933 0.115207,0.14107 0.305075,-0.32449 0.618746,-0.64838 0.941174,-0.9708 0.32136,-0.32137 0.644312,-0.63393 0.9677,-0.93803 -0.13221,-0.10448 -0.241365,-0.23261 -0.331299,-0.37286 z m 7.416166,1.99233 c -0.0933,0.0483 -0.191935,0.0885 -0.297165,0.11672 -0.05998,0.0161 -0.119889,0.0205 -0.179987,0.0288 0.128677,0.42681 0.252711,0.86067 0.37083,1.30149 0.117747,0.43944 0.227163,0.87538 0.328983,1.30793 0.156691,-0.0622 0.321953,-0.0941 0.488452,-0.10183 -0.104151,-0.44196 -0.214133,-0.88674 -0.334406,-1.33562 -0.119735,-0.44684 -0.246532,-0.88458 -0.376707,-1.3175 z m -10.428042,-2.00882 c -0.160299,0.0441 -0.327238,0.0669 -0.497816,0.0549 0.06624,0.57194 0.148262,1.15811 0.246224,1.75657 0.158909,-0.0567 0.324843,-0.0872 0.491999,-0.0891 -0.09628,-0.58776 -0.175043,-1.16149 -0.240407,-1.72237 z m 13.037124,3.5026 c -0.335185,0.45011 -0.687697,0.90417 -1.062575,1.36199 0.105872,0.0622 0.205742,0.13764 0.296254,0.22811 0.03082,0.0308 0.05339,0.0664 0.08093,0.0993 0.385964,-0.47153 0.751676,-0.94045 1.096515,-1.40479 -0.147621,-0.0708 -0.287941,-0.16091 -0.409532,-0.28254 -6.22e-4,-6.3e-4 -9.75e-4,-0.001 -0.0015,-0.002 z m -3.003067,3.57051 c -0.305169,0.32459 -0.61877,0.64877 -0.941308,0.97131 -0.32128,0.32128 -0.643766,0.63368 -0.967064,0.93765 0.131997,0.10463 0.240935,0.23293 0.330666,0.37322 0.33091,-0.31143 0.661325,-0.62893 0.990092,-0.9577 0.327057,-0.32706 0.643039,-0.65566 0.95294,-0.98478 -0.08847,-0.0566 -0.173098,-0.12164 -0.250118,-0.19862 -0.04383,-0.0438 -0.07799,-0.0933 -0.115208,-0.14108 z m -9.216952,-2.46553 c -0.156621,0.0621 -0.322283,0.093 -0.488684,0.10071 0.104014,0.44219 0.21348,0.88702 0.333775,1.33597 0.119631,0.44646 0.246165,0.88427 0.376341,1.31688 0.09329,-0.0483 0.191927,-0.0885 0.297164,-0.11672 0.05942,-0.0159 0.119016,-0.0273 0.178595,-0.0356 -0.127895,-0.42453 -0.2516,-0.85562 -0.369077,-1.29407 -0.117663,-0.4391 -0.22658,-0.87492 -0.328119,-1.30715 z M 28.0698,135.4725 c -0.385462,0.47075 -0.750385,0.93898 -1.094849,1.40256 0.147676,0.0708 0.287024,0.16387 0.408732,0.28554 7.22e-4,7.2e-4 0.0014,0.001 0.0022,0.002 0.335919,-0.4511 0.689334,-0.90673 1.065144,-1.36558 -0.106382,-0.0625 -0.208447,-0.13381 -0.299321,-0.22465 -0.0311,-0.0311 -0.05403,-0.0669 -0.08181,-0.1 z m 12.602913,3.38004 c -0.158686,0.0566 -0.324352,0.0885 -0.49127,0.0904 0.09622,0.58666 0.174806,1.15926 0.24021,1.7191 0.160297,-0.0442 0.327115,-0.0663 0.497683,-0.0544 -0.06641,-0.5715 -0.14855,-1.15709 -0.246624,-1.75507 z m -12.907621,-0.25023 c -0.04177,0.1609 -0.105543,0.31685 -0.201012,0.45867 0.528146,0.22817 1.076171,0.45039 1.643087,0.66442 0.03033,-0.16577 0.08553,-0.32537 0.167367,-0.47089 -0.556488,-0.21029 -1.091613,-0.42864 -1.609444,-0.6522 z m 11.598629,3.10888 c -0.558897,-0.0654 -1.130091,-0.14375 -1.715663,-0.23983 -9.55e-4,0.12326 -0.01175,0.24751 -0.04498,0.37153 -0.01129,0.0422 -0.03086,0.0796 -0.04551,0.11995 0.601579,0.0987 1.190662,0.1811 1.765419,0.24781 -0.01269,-0.16357 -0.005,-0.33065 0.03958,-0.4971 2.33e-4,-8.7e-4 8.8e-4,-8e-4 0.0011,-0.002 z m -4.59333,-0.8151 c -0.433746,-0.10194 -0.871088,-0.21146 -1.311778,-0.32954 -0.439336,-0.11772 -0.871974,-0.24089 -1.297438,-0.36908 -0.02443,0.16682 -0.08032,0.32564 -0.15689,0.47371 0.435338,0.13072 0.875741,0.25763 1.325002,0.37801 0.446631,0.11969 0.88889,0.22886 1.328639,0.33251 0.0048,-0.10471 0.01941,-0.21022 0.04755,-0.3152 0.01605,-0.0599 0.04213,-0.11424 0.06491,-0.1704 z m 6.356901,2.66311 c -0.162237,0.036 -0.329951,0.0457 -0.500444,0.0248 0.01153,0.59934 0.0042,1.17319 -0.02801,1.70982 -0.08457,1.40905 -0.319993,2.58547 -0.683876,3.43278 -0.363882,0.84732 -0.840917,1.34761 -1.409868,1.50006 -0.568953,0.15245 -1.232262,-0.0426 -1.971051,-0.5945 -0.738789,-0.55185 -1.52869,-1.45321 -2.306455,-2.63119 -0.295439,-0.44746 -0.588485,-0.93931 -0.877677,-1.46245 -0.13108,0.0998 -0.282049,0.17561 -0.44583,0.22829 0.297596,0.53882 0.600032,1.04665 0.906083,1.51018 0.79878,1.20981 1.615435,2.15231 2.425173,2.75717 0.809736,0.60485 1.634558,0.88042 2.399276,0.67549 0.764711,-0.2049 1.340864,-0.85588 1.739689,-1.78457 0.398825,-0.92868 0.636833,-2.15422 0.723692,-3.60133 0.03335,-0.55567 0.04114,-1.14785 0.02931,-1.76458 z m -9.716262,-2.26928 c -0.107373,0.061 -0.220574,0.11347 -0.344802,0.14676 -0.04209,0.0113 -0.08412,0.0127 -0.126316,0.0202 0.215444,0.57034 0.438465,1.12189 0.668268,1.65297 0.135538,-0.0931 0.284364,-0.16981 0.451239,-0.21453 7.55e-4,-2e-4 0.0015,-2.5e-4 0.0023,-4.2e-4 -0.222918,-0.5164 -0.440979,-1.05008 -0.650653,-1.60492 z m 3.458135,0.92868 c -0.458508,0.37542 -0.913543,0.72889 -1.364307,1.06448 0.117799,0.11635 0.214625,0.25464 0.289348,0.40762 0.462778,-0.34376 0.92972,-0.70786 1.399625,-1.09246 -0.128591,-0.1091 -0.23935,-0.23604 -0.324666,-0.37964 z"
       sodipodi:nodetypes="cccccscsccsccssscccccccccccccccccscccccccccccsccccccscccscccccccsscccccccccccccccsccccccccccccsccscccsccscscccsccccccccscccccccccscscccsscccccscccscccccscccssscscccscssccccccscccccccc" />
    <path
       id="path3848-9"
       style="font-variation-settings:normal;fill:#ccccff;fill-opacity:1;stroke:none;stroke-width:1;stroke-linecap:round;stroke-linejoin:round;stroke-miterlimit:4;stroke-dasharray:none;stroke-dashoffset:0;stroke-opacity:1;paint-order:markers stroke fill;stop-color:#000000"
       d="m 37.188001,126.64844 a 1,1 0 0 0 -0.517325,-5e-5 1,1 0 0 0 -0.707399,1.22444 1,1 0 0 0 1.224941,0.70753 1,1 0 0 0 0.707033,-1.22507 1,1 0 0 0 -0.70725,-0.70685 z m -3.707485,2.88904 a 1,1 0 0 0 -1.22467,0.70706 1,1 0 0 0 0.707063,1.22467 1,1 0 0 0 1.22467,-0.70706 1,1 0 0 0 -0.707063,-1.22467 z m 5.474841,1.46858 a 1,1 0 0 0 -0.517325,-5e-5 1,1 0 0 0 -0.707399,1.22444 1,1 0 0 0 1.224941,0.70753 1,1 0 0 0 0.707034,-1.22507 1,1 0 0 0 -0.707251,-0.70685 z m 4.356849,1.76554 a 1,1 0 0 0 -0.966054,0.25902 1,1 0 0 0 -9.4e-5,1.41396 1,1 0 0 0 1.413963,1e-4 1,1 0 0 0 2.28e-4,-1.41447 1,1 0 0 0 -0.448043,-0.25861 z m -14.489135,-3.88182 a 1,1 0 0 0 -1.224804,0.70756 1,1 0 0 0 0.707064,1.22467 1,1 0 0 0 1.225169,-0.70693 1,1 0 0 0 -0.707429,-1.2253 z m 0.647966,4.6558 a 1,1 0 0 0 -0.966054,0.25902 1,1 0 0 0 4.04e-4,1.4141 1,1 0 0 0 1.413963,9e-5 1,1 0 0 0 9.5e-5,-1.41396 1,1 0 0 0 -0.448408,-0.25925 z m 10.952079,2.93621 a 1,1 0 0 0 -0.96592,0.25852 1,1 0 0 0 -2.28e-4,1.41446 1,1 0 0 0 1.414462,2.3e-4 1,1 0 0 0 -2.71e-4,-1.4146 1,1 0 0 0 -0.448043,-0.25861 z m 0.6476,4.65516 a 1,1 0 0 0 -1.22467,0.70707 1,1 0 0 0 0.707063,1.22467 1,1 0 0 0 1.224671,-0.70707 1,1 0 0 0 -0.707064,-1.22467 z M 26.58208,137.25527 a 1,1 0 0 0 -0.965421,0.25865 1,1 0 0 0 -2.28e-4,1.41447 1,1 0 0 0 1.414097,-4.1e-4 1,1 0 0 0 9.4e-5,-1.41396 1,1 0 0 0 -0.448542,-0.25875 z m 4.35595,1.7669 a 1,1 0 0 0 -0.517824,-1.9e-4 1,1 0 0 0 -0.707034,1.22508 1,1 0 0 0 1.224576,0.7069 1,1 0 0 0 0.706899,-1.22458 1,1 0 0 0 -0.706617,-0.70721 z m 5.475607,1.46772 a 1,1 0 0 0 -1.22467,0.70706 1,1 0 0 0 0.70693,1.22517 1,1 0 0 0 1.224804,-0.70756 1,1 0 0 0 -0.707064,-1.22467 z m -3.707351,2.88853 a 1,1 0 0 0 -0.517958,3.2e-4 1,1 0 0 0 -0.706899,1.22457 1,1 0 0 0 1.225074,0.70703 1,1 0 0 0 0.7069,-1.22457 1,1 0 0 0 -0.707117,-0.70735 z" />
    <g
       id="path9663-8-2-3-5"
       style="fill:#ccccff;fill-opacity:1"
       transform="translate(-35.000002)">
      <path
         style="color:#000000;fill:#ccccff;fill-opacity:1;stroke-width:0.75;stroke-linecap:round;-inkscape-stroke:none"
         d="m 68.563141,135.6044 h 3.5"
         id="path17107-3" />
      <path
         style="color:#000000;fill:#ccccff;fill-opacity:1;stroke-linecap:round;-inkscape-stroke:none"
         d="m 68.5625,135.22852 a 0.375,0.375 0 0 0 -0.375,0.375 0.375,0.375 0 0 0 0.375,0.375 h 3.5 a 0.375,0.375 0 0 0 0.375,-0.375 0.375,0.375 0 0 0 -0.375,-0.375 z"
         id="path17109-0" />
    </g>
    <g
       id="path9663-8-2-3-9-8"
       style="fill:#ccccff;fill-opacity:1"
       transform="translate(-35.000002)">
      <path
         style="color:#000000;fill:#ccccff;fill-opacity:1;stroke-width:0.75;stroke-linecap:round;-inkscape-stroke:none"
         d="m 67.563141,136.6044 h 3.5"
         id="path17119-0" />
      <path
         style="color:#000000;fill:#ccccff;fill-opacity:1;stroke-linecap:round;-inkscape-stroke:none"
         d="m 67.5625,136.22852 a 0.375,0.375 0 0 0 -0.375,0.375 0.375,0.375 0 0 0 0.375,0.375 h 3.5 a 0.375,0.375 0 0 0 0.375,-0.375 0.375,0.375 0 0 0 -0.375,-0.375 z"
         id="path17121-6" />
    </g>
    <g
       id="path9663-8-2-3-9-2-7"
       style="fill:#ccccff;fill-opacity:1"
       transform="translate(-35.000002)">
      <path
         style="color:#000000;fill:#ccccff;fill-opacity:1;stroke-width:0.75;stroke-linecap:round;-inkscape-stroke:none"
         d="m 69.188141,137.6044 h 1"
         id="path17125-7" />
      <path
         style="color:#000000;fill:#ccccff;fill-opacity:1;stroke-linecap:round;-inkscape-stroke:none"
         d="m 69.1875,137.22852 a 0.375,0.375 0 0 0 -0.375,0.375 0.375,0.375 0 0 0 0.375,0.375 h 1 a 0.375,0.375 0 0 0 0.375,-0.375 0.375,0.375 0 0 0 -0.375,-0.375 z"
         id="path17127-0" />
    </g>
    <g
       id="path9663-8-2-3-7-8"
       style="fill:#ccccff;fill-opacity:1"
       transform="translate(-35.000002)">
      <path
         style="color:#000000;fill:#ccccff;fill-opacity:1;stroke-width:0.75;stroke-linecap:round;-inkscape-stroke:none"
         d="m 68.063141,134.6044 h 2.99985"
         id="path17113-5" />
      <path
         style="color:#000000;fill:#ccccff;fill-opacity:1;stroke-linecap:round;-inkscape-stroke:none"
         d="m 68.0625,134.22852 a 0.375,0.375 0 0 0 -0.375,0.375 0.375,0.375 0 0 0 0.375,0.375 h 3 a 0.375,0.375 0 0 0 0.375,-0.375 0.375,0.375 0 0 0 -0.375,-0.375 z"
         id="path17115-6" />
    </g>
  </g>
</svg>
